<mxfile host="app.diagrams.net" agent="Mozilla/5.0 (Macintosh; Intel Mac OS X 10_15_7) AppleWebKit/537.36 (KHTML, like Gecko) Chrome/139.0.0.0 Safari/537.36" version="28.2.5">
  <diagram name="Page-1" id="6w3Nn8mPZokH5K6b7TAQ">
    <mxGraphModel dx="684" dy="512" grid="1" gridSize="10" guides="1" tooltips="1" connect="1" arrows="1" fold="1" page="1" pageScale="1" pageWidth="827" pageHeight="1169" math="0" shadow="0">
      <root>
        <mxCell id="0" />
        <mxCell id="1" parent="0" />
        <mxCell id="zOuMPL_r7VEr6dwzE8yM-20" value="c" style="rounded=0;whiteSpace=wrap;html=1;strokeColor=none;" parent="1" vertex="1">
          <mxGeometry x="439" y="580" width="110" height="22" as="geometry" />
        </mxCell>
        <mxCell id="zOuMPL_r7VEr6dwzE8yM-19" value="" style="rounded=0;whiteSpace=wrap;html=1;strokeColor=none;" parent="1" vertex="1">
          <mxGeometry x="580" y="525" width="110" height="60" as="geometry" />
        </mxCell>
        <mxCell id="OOeiIcqSMya32nPRaJqt-1" value="&lt;font style=&quot;font-size: 11px;&quot;&gt;Control Plane&lt;/font&gt;" style="rounded=1;whiteSpace=wrap;html=1;fillColor=#dae8fc;strokeColor=#6c8ebf;verticalAlign=top;fontFamily=Verdana;arcSize=9;" parent="1" vertex="1">
          <mxGeometry x="290" y="460" width="90" height="210" as="geometry" />
        </mxCell>
        <mxCell id="OOeiIcqSMya32nPRaJqt-2" value="Node(s)" style="rounded=1;whiteSpace=wrap;html=1;fillColor=#dae8fc;strokeColor=#6c8ebf;verticalAlign=top;arcSize=8;fontSize=11;" parent="1" vertex="1">
          <mxGeometry x="470" y="460" width="90" height="210" as="geometry" />
        </mxCell>
        <mxCell id="OOeiIcqSMya32nPRaJqt-13" value="cni" style="aspect=fixed;sketch=0;html=1;dashed=0;whitespace=wrap;verticalLabelPosition=middle;verticalAlign=bottom;fillColor=#2875E2;strokeColor=#ffffff;points=[[0.005,0.63,0],[0.1,0.2,0],[0.9,0.2,0],[0.5,0,0],[0.995,0.63,0],[0.72,0.99,0],[0.5,1,0],[0.28,0.99,0]];shape=mxgraph.kubernetes.icon2;prIcon=pod;rounded=1;labelPosition=center;align=center;fontSize=11;fontColor=#FFFFFF;labelBackgroundColor=#2875E2;spacingBottom=-1;" parent="1" vertex="1">
          <mxGeometry x="490" y="610" width="50" height="48" as="geometry" />
        </mxCell>
        <mxCell id="OOeiIcqSMya32nPRaJqt-27" value="" style="aspect=fixed;sketch=0;html=1;dashed=0;whitespace=wrap;verticalLabelPosition=bottom;verticalAlign=top;fillColor=#2875E2;strokeColor=#ffffff;points=[[0.005,0.63,0],[0.1,0.2,0],[0.9,0.2,0],[0.5,0,0],[0.995,0.63,0],[0.72,0.99,0],[0.5,1,0],[0.28,0.99,0]];shape=mxgraph.kubernetes.icon2;kubernetesLabel=1;prIcon=kubelet;rounded=1;" parent="1" vertex="1">
          <mxGeometry x="490" y="490" width="50" height="48" as="geometry" />
        </mxCell>
        <mxCell id="OOeiIcqSMya32nPRaJqt-29" value="" style="aspect=fixed;sketch=0;html=1;dashed=0;whitespace=wrap;verticalLabelPosition=bottom;verticalAlign=top;fillColor=#2875E2;strokeColor=#ffffff;points=[[0.005,0.63,0],[0.1,0.2,0],[0.9,0.2,0],[0.5,0,0],[0.995,0.63,0],[0.72,0.99,0],[0.5,1,0],[0.28,0.99,0]];shape=mxgraph.kubernetes.icon2;kubernetesLabel=1;prIcon=api;rounded=1;" parent="1" vertex="1">
          <mxGeometry x="310" y="490" width="50" height="48" as="geometry" />
        </mxCell>
        <mxCell id="zOuMPL_r7VEr6dwzE8yM-2" value="Depends on CNI, may not&lt;div&gt;contact directly&lt;/div&gt;" style="text;html=1;align=center;verticalAlign=middle;resizable=0;points=[];autosize=1;strokeColor=none;fillColor=none;fontSize=6;" parent="1" vertex="1">
          <mxGeometry x="431" y="575" width="90" height="30" as="geometry" />
        </mxCell>
        <mxCell id="zOuMPL_r7VEr6dwzE8yM-3" value="" style="endArrow=classic;html=1;rounded=0;fillColor=#fff2cc;strokeColor=#d6b656;entryX=0;entryY=0.5;entryDx=0;entryDy=0;exitX=1;exitY=0.5;exitDx=0;exitDy=0;" parent="1" source="TY_CA1awpfbYfhrSxAFU-2" target="zOuMPL_r7VEr6dwzE8yM-4" edge="1">
          <mxGeometry width="50" height="50" relative="1" as="geometry">
            <mxPoint x="390" y="510" as="sourcePoint" />
            <mxPoint x="440" y="480" as="targetPoint" />
          </mxGeometry>
        </mxCell>
        <mxCell id="zOuMPL_r7VEr6dwzE8yM-4" value="" style="ellipse;whiteSpace=wrap;html=1;aspect=fixed;fontSize=8;fillColor=#f8cecc;strokeColor=#b85450;" parent="1" vertex="1">
          <mxGeometry x="480" y="510" width="20" height="20" as="geometry" />
        </mxCell>
        <mxCell id="zOuMPL_r7VEr6dwzE8yM-5" value="&amp;nbsp; -&amp;nbsp; &amp;nbsp;serverAuth flag" style="ellipse;html=1;aspect=fixed;fontSize=8;fillColor=#f8cecc;strokeColor=#b85450;labelPosition=right;verticalLabelPosition=middle;align=left;verticalAlign=middle;" parent="1" vertex="1">
          <mxGeometry x="590" y="530" width="20" height="20" as="geometry" />
        </mxCell>
        <mxCell id="zOuMPL_r7VEr6dwzE8yM-11" value="" style="ellipse;whiteSpace=wrap;html=1;aspect=fixed;fontSize=8;fillColor=#fff2cc;strokeColor=#d6b656;" parent="1" vertex="1">
          <mxGeometry x="480" y="629" width="20" height="20" as="geometry" />
        </mxCell>
        <mxCell id="zOuMPL_r7VEr6dwzE8yM-12" value="&amp;nbsp; -&amp;nbsp; &amp;nbsp;clientAuth flag" style="ellipse;html=1;aspect=fixed;fontSize=8;fillColor=#fff2cc;strokeColor=#d6b656;labelPosition=right;verticalLabelPosition=middle;align=left;verticalAlign=middle;" parent="1" vertex="1">
          <mxGeometry x="590" y="560" width="20" height="20" as="geometry" />
        </mxCell>
        <mxCell id="zOuMPL_r7VEr6dwzE8yM-14" value="" style="endArrow=classic;html=1;rounded=0;exitX=0.5;exitY=0;exitDx=0;exitDy=0;fillColor=#fff2cc;strokeColor=#d6b656;entryX=0.5;entryY=1;entryDx=0;entryDy=0;" parent="1" source="zOuMPL_r7VEr6dwzE8yM-11" target="zOuMPL_r7VEr6dwzE8yM-4" edge="1">
          <mxGeometry width="50" height="50" relative="1" as="geometry">
            <mxPoint x="596" y="616" as="sourcePoint" />
            <mxPoint x="410" y="530" as="targetPoint" />
          </mxGeometry>
        </mxCell>
        <mxCell id="TY_CA1awpfbYfhrSxAFU-2" value="" style="ellipse;whiteSpace=wrap;html=1;aspect=fixed;fontSize=8;fillColor=#fff2cc;strokeColor=#d6b656;" vertex="1" parent="1">
          <mxGeometry x="350" y="510" width="20" height="20" as="geometry" />
        </mxCell>
        <mxCell id="TY_CA1awpfbYfhrSxAFU-5" value="" style="group" vertex="1" connectable="0" parent="1">
          <mxGeometry x="310" y="605" width="50" height="53" as="geometry" />
        </mxCell>
        <mxCell id="OOeiIcqSMya32nPRaJqt-31" value="" style="aspect=fixed;sketch=0;html=1;dashed=0;whitespace=wrap;verticalLabelPosition=bottom;verticalAlign=top;fillColor=#2875E2;strokeColor=#ffffff;points=[[0.005,0.63,0],[0.1,0.2,0],[0.9,0.2,0],[0.5,0,0],[0.995,0.63,0],[0.72,0.99,0],[0.5,1,0],[0.28,0.99,0]];shape=mxgraph.kubernetes.icon2;kubernetesLabel=1;prIcon=sched;rounded=1;" parent="TY_CA1awpfbYfhrSxAFU-5" vertex="1">
          <mxGeometry width="50" height="48" as="geometry" />
        </mxCell>
        <mxCell id="TY_CA1awpfbYfhrSxAFU-4" value="" style="whiteSpace=wrap;html=1;fillColor=#2875E2;strokeColor=none;" vertex="1" parent="TY_CA1awpfbYfhrSxAFU-5">
          <mxGeometry x="10" y="31" width="30" height="10" as="geometry" />
        </mxCell>
        <mxCell id="TY_CA1awpfbYfhrSxAFU-3" value="metrics&lt;div&gt;server&lt;/div&gt;" style="text;html=1;align=center;verticalAlign=middle;resizable=0;points=[];autosize=1;strokeColor=none;fillColor=none;fontColor=#FFFFFF;labelBackgroundColor=none;fontSize=7;" vertex="1" parent="TY_CA1awpfbYfhrSxAFU-5">
          <mxGeometry y="23" width="50" height="30" as="geometry" />
        </mxCell>
        <mxCell id="TY_CA1awpfbYfhrSxAFU-6" value="" style="ellipse;whiteSpace=wrap;html=1;aspect=fixed;fontSize=8;fillColor=#fff2cc;strokeColor=#d6b656;" vertex="1" parent="1">
          <mxGeometry x="350" y="624" width="20" height="20" as="geometry" />
        </mxCell>
        <mxCell id="TY_CA1awpfbYfhrSxAFU-7" value="" style="endArrow=classic;html=1;rounded=0;fillColor=#fff2cc;strokeColor=#d6b656;entryX=0;entryY=1;entryDx=0;entryDy=0;exitX=1;exitY=0;exitDx=0;exitDy=0;" edge="1" parent="1" source="TY_CA1awpfbYfhrSxAFU-6" target="zOuMPL_r7VEr6dwzE8yM-4">
          <mxGeometry width="50" height="50" relative="1" as="geometry">
            <mxPoint x="470" y="550" as="sourcePoint" />
            <mxPoint x="580" y="550" as="targetPoint" />
          </mxGeometry>
        </mxCell>
      </root>
    </mxGraphModel>
  </diagram>
</mxfile>
